<?xml version="1.0" encoding="utf-8"?>
<!-- Generator: Adobe Illustrator 18.0.0, SVG Export Plug-In . SVG Version: 6.00 Build 0)  -->
<!DOCTYPE svg PUBLIC "-//W3C//DTD SVG 1.1//EN" "http://www.w3.org/Graphics/SVG/1.1/DTD/svg11.dtd">
<svg version="1.1" id="Layer_1" xmlns="http://www.w3.org/2000/svg" xmlns:xlink="http://www.w3.org/1999/xlink" x="0px" y="0px"
	 viewBox="-24 6 48 48" enable-background="new -24 6 48 48" xml:space="preserve">
<title>PHP_shield</title>
<path fill="#E9EFF0" d="M-18.9,19.9c0,23.7,18.9,31.4,19.3,31.6c0.4-0.1,19.3-8,19.3-31.6L0.2,10L-18.9,19.9z"/>
<path fill="none" d="M-20.1,19.6c0,24.3,20,32.2,20.4,32.4c0.4-0.1,20.4-8.2,20.4-32.4L0.3,9.5L-20.1,19.6z"/>
<path opacity="0.349" fill="#B3B3B3" enable-background="new    " d="M0.3,9.5L0.3,9.5L0.3,9.5L0.3,9.5V52l0,0l0,0l0,0l0,0l0,0
	c0.3-0.1,20.4-8.2,20.4-32.4L0.3,9.5L0.3,9.5"/>
<path fill="#0070BB" d="M0.3,9.5L0.3,9.5L0.3,9.5L0.3,9.5l-20.4,10c0,24.3,20,32.2,20.4,32.4l0,0l0,0l0,0l0,0
	c0.3-0.1,20.4-8.2,20.4-32.4L0.3,9.5 M0.3,49L0.3,49L0.3,49L0.3,49C0,48.9-17.3,42-17.3,21.1l17.6-8.6l0,0l0,0l0,0l0,0l17.6,8.6
	C18,42.1,0.6,49,0.3,49"/>
<path fill="#004760" d="M0.3,11.5L0.3,11.5L0.3,11.5L0.3,11.5l-18.6,9.1C-18.3,42.7,0,50,0.3,50.1l0,0l0,0l0,0l0,0
	c0.3-0.1,18.6-7.4,18.6-29.5L0.3,11.5 M0.3,49.1L0.3,49.1L0.3,49.1L0.3,49.1c-0.3-0.1-17.6-7-17.6-28l17.6-8.6l0,0l0,0l0,0l0,0
	l17.6,8.6C18,42.1,0.6,49,0.3,49.1"/>
<path fill="#00587F" d="M0.3,12.5l17.6,8.6C17.9,42.1,0.6,49,0.3,49v2.9c0.4-0.1,20.4-8.1,20.4-32.4L5.2,12L0.3,9.6V12.5z"/>
<path fill="#004760" d="M18.8,20.6L0.3,11.5l0,0l0,0l0,0l0,0v1l0,0l0,0l0,0l0,0l0,0l17.6,8.6c0,21-17.3,27.9-17.6,28l0,0l0,0l0,0
	l0,0v1l0,0l0,0l0,0l0,0l0,0C0.7,49.9,18.8,42.8,18.8,20.6"/>
<path fill="#35A0DB" d="M-17.3,21.1l-1-0.5l18.6-9.1v1L-17.3,21.1"/>
<path fill="#35A0DB" d="M18.8,20.6l-1,0.5c0.1,21-17.2,27.9-17.5,28l0,0l0,0l0,0l0,0v1l0,0l0,0l0,0l0,0l0,0
	C0.7,49.9,18.8,42.8,18.8,20.6"/>
<g>
	<path fill="#FCFCFC" d="M-8.4,24.5c-1,0-1.8,0.4-2.4,1.2c-0.6,0.8-0.8,1.8-0.8,3.2c0,2.9,1.1,4.3,3.2,4.3c0.9,0,2-0.2,3.3-0.7v2.3
		c-1.1,0.4-2.2,0.7-3.5,0.7c-1.9,0-3.3-0.6-4.3-1.7c-1-1.1-1.5-2.8-1.5-4.9c0-1.3,0.2-2.5,0.7-3.5s1.2-1.8,2.1-2.3
		c0.9-0.5,2-0.8,3.2-0.8c1.2,0,2.5,0.3,3.8,0.9l-0.9,2.2c-0.5-0.2-1-0.4-1.5-0.6S-7.9,24.5-8.4,24.5z"/>
	<path fill="#FCFCFC" d="M5.2,31.7c0,1.2-0.4,2.1-1.3,2.7c-0.8,0.7-2,1-3.5,1c-1.4,0-2.6-0.3-3.6-0.8v-2.5c0.9,0.4,1.6,0.7,2.2,0.8
		s1.2,0.2,1.6,0.2c0.6,0,1.1-0.1,1.4-0.3s0.5-0.6,0.5-1c0-0.3-0.1-0.5-0.2-0.7c-0.1-0.2-0.3-0.4-0.6-0.6c-0.3-0.2-0.8-0.5-1.7-0.9
		c-0.8-0.4-1.4-0.7-1.8-1.1s-0.7-0.7-0.9-1.2s-0.4-1-0.4-1.6c0-1.1,0.4-2,1.2-2.7c0.8-0.7,1.8-1,3.2-1c0.7,0,1.3,0.1,1.9,0.2
		c0.6,0.2,1.2,0.4,1.9,0.7l-0.9,2.1C3.6,25,3,24.8,2.5,24.7c-0.4-0.1-0.9-0.2-1.3-0.2c-0.5,0-0.9,0.1-1.2,0.4s-0.4,0.6-0.4,0.9
		c0,0.2,0.1,0.5,0.2,0.6c0.1,0.2,0.3,0.4,0.5,0.5c0.2,0.2,0.8,0.5,1.7,0.9c1.2,0.6,2,1.2,2.5,1.7C5,30.1,5.2,30.8,5.2,31.7z"/>
	<path fill="#FCFCFC" d="M15.1,31.7c0,1.2-0.4,2.1-1.3,2.7c-0.8,0.7-2,1-3.5,1c-1.4,0-2.6-0.3-3.6-0.8v-2.5c0.9,0.4,1.6,0.7,2.2,0.8
		s1.2,0.2,1.6,0.2c0.6,0,1.1-0.1,1.4-0.3c0.3-0.2,0.5-0.6,0.5-1c0-0.3-0.1-0.5-0.2-0.7c-0.1-0.2-0.3-0.4-0.6-0.6
		c-0.3-0.2-0.8-0.5-1.7-0.9c-0.8-0.4-1.4-0.7-1.8-1.1s-0.7-0.7-0.9-1.2s-0.4-1-0.4-1.6c0-1.1,0.4-2,1.2-2.7s1.8-1,3.2-1
		c0.7,0,1.3,0.1,1.9,0.2c0.6,0.2,1.2,0.4,1.9,0.7l-0.9,2.1c-0.7-0.3-1.3-0.5-1.7-0.6c-0.4-0.1-0.9-0.2-1.3-0.2
		c-0.5,0-0.9,0.1-1.2,0.4s-0.4,0.6-0.4,0.9c0,0.2,0.1,0.5,0.2,0.6c0.1,0.2,0.3,0.4,0.5,0.5c0.2,0.2,0.8,0.5,1.7,0.9
		c1.2,0.6,2,1.2,2.5,1.7C14.9,30.1,15.1,30.8,15.1,31.7z"/>
</g>
<g>
	<path fill="#0070BB" d="M-8.4,23.5c-1,0-1.8,0.4-2.4,1.2c-0.6,0.8-0.8,1.8-0.8,3.2c0,2.9,1.1,4.3,3.2,4.3c0.9,0,2-0.2,3.3-0.7v2.3
		c-1.1,0.4-2.2,0.7-3.5,0.7c-1.9,0-3.3-0.6-4.3-1.7c-1-1.1-1.5-2.8-1.5-4.9c0-1.3,0.2-2.5,0.7-3.5s1.2-1.8,2.1-2.3
		c0.9-0.5,2-0.8,3.2-0.8c1.2,0,2.5,0.3,3.8,0.9l-0.9,2.2c-0.5-0.2-1-0.4-1.5-0.6S-7.9,23.5-8.4,23.5z"/>
	<path fill="#0070BB" d="M5.2,30.7c0,1.2-0.4,2.1-1.3,2.7c-0.8,0.7-2,1-3.5,1c-1.4,0-2.6-0.3-3.6-0.8v-2.5c0.9,0.4,1.6,0.7,2.2,0.8
		s1.2,0.2,1.6,0.2c0.6,0,1.1-0.1,1.4-0.3s0.5-0.6,0.5-1c0-0.3-0.1-0.5-0.2-0.7c-0.1-0.2-0.3-0.4-0.6-0.6c-0.3-0.2-0.8-0.5-1.7-0.9
		c-0.8-0.4-1.4-0.7-1.8-1.1s-0.7-0.7-0.9-1.2s-0.4-1-0.4-1.6c0-1.1,0.4-2,1.2-2.7c0.8-0.7,1.8-1,3.2-1c0.7,0,1.3,0.1,1.9,0.2
		c0.6,0.2,1.2,0.4,1.9,0.7l-0.9,2.1C3.6,24,3,23.8,2.5,23.7c-0.4-0.1-0.9-0.2-1.3-0.2c-0.5,0-0.9,0.1-1.2,0.4s-0.4,0.6-0.4,0.9
		c0,0.2,0.1,0.5,0.2,0.6c0.1,0.2,0.3,0.4,0.5,0.5c0.2,0.2,0.8,0.5,1.7,0.9c1.2,0.6,2,1.2,2.5,1.7C5,29.1,5.2,29.8,5.2,30.7z"/>
	<path fill="#0070BB" d="M15.1,30.7c0,1.2-0.4,2.1-1.3,2.7c-0.8,0.7-2,1-3.5,1c-1.4,0-2.6-0.3-3.6-0.8v-2.5c0.9,0.4,1.6,0.7,2.2,0.8
		s1.2,0.2,1.6,0.2c0.6,0,1.1-0.1,1.4-0.3c0.3-0.2,0.5-0.6,0.5-1c0-0.3-0.1-0.5-0.2-0.7c-0.1-0.2-0.3-0.4-0.6-0.6
		c-0.3-0.2-0.8-0.5-1.7-0.9c-0.8-0.4-1.4-0.7-1.8-1.1s-0.7-0.7-0.9-1.2s-0.4-1-0.4-1.6c0-1.1,0.4-2,1.2-2.7s1.8-1,3.2-1
		c0.7,0,1.3,0.1,1.9,0.2c0.6,0.2,1.2,0.4,1.9,0.7l-0.9,2.1c-0.7-0.3-1.3-0.5-1.7-0.6c-0.4-0.1-0.9-0.2-1.3-0.2
		c-0.5,0-0.9,0.1-1.2,0.4s-0.4,0.6-0.4,0.9c0,0.2,0.1,0.5,0.2,0.6c0.1,0.2,0.3,0.4,0.5,0.5c0.2,0.2,0.8,0.5,1.7,0.9
		c1.2,0.6,2,1.2,2.5,1.7C14.9,29.1,15.1,29.8,15.1,30.7z"/>
</g>
</svg>
