<svg xmlns="http://www.w3.org/2000/svg" viewBox="-24 6 48 48"><title>PHP_shield</title><path fill="#E9EFF0" d="M-18.9 19.9C-18.9 43.6 0 51.3.4 51.5c.4-.1 19.3-8 19.3-31.6L.2 10l-19.1 9.9z"/><path fill="none" d="M-20.1 19.6C-20.1 43.9-.1 51.8.3 52c.4-.1 20.4-8.2 20.4-32.4L.3 9.5l-20.4 10.1z"/><path opacity=".349" fill="#B3B3B3" d="M.3 9.5V52c.3-.1 20.4-8.2 20.4-32.4L.3 9.5"/><path fill="#0070BB" d="M.3 9.5l-20.4 10c0 24.3 20 32.2 20.4 32.4.3-.1 20.4-8.2 20.4-32.4L.3 9.5M.3 49c-.3-.1-17.6-7-17.6-27.9L.3 12.5l17.6 8.6C18 42.1.6 49 .3 49"/><path fill="#004760" d="M.3 11.5l-18.6 9.1C-18.3 42.7 0 50 .3 50.1c.3-.1 18.6-7.4 18.6-29.5L.3 11.5m0 37.6c-.3-.1-17.6-7-17.6-28L.3 12.5l17.6 8.6C18 42.1.6 49 .3 49.1"/><path fill="#00587F" d="M.3 12.5l17.6 8.6C17.9 42.1.6 49 .3 49v2.9c.4-.1 20.4-8.1 20.4-32.4L5.2 12 .3 9.6v2.9z"/><path fill="#004760" d="M18.8 20.6L.3 11.5v1l17.6 8.6c0 21-17.3 27.9-17.6 28v1c.4-.2 18.5-7.3 18.5-29.5"/><path fill="#35A0DB" d="M-17.3 21.1l-1-.5L.3 11.5v1l-17.6 8.6m36.1-.5l-1 .5C17.9 42.1.6 49 .3 49.1v1c.4-.2 18.5-7.3 18.5-29.5"/><path d="M-8.4 24.5c-1 0-1.8.4-2.4 1.2-.6.8-.8 1.8-.8 3.2 0 2.9 1.1 4.3 3.2 4.3.9 0 2-.2 3.3-.7v2.3c-1.1.4-2.2.7-3.5.7-1.9 0-3.3-.6-4.3-1.7s-1.5-2.8-1.5-4.9c0-1.3.2-2.5.7-3.5s1.2-1.8 2.1-2.3c.9-.5 2-.8 3.2-.8 1.2 0 2.5.3 3.8.9l-.9 2.2-1.5-.6c-.5-.2-.9-.3-1.4-.3zm13.6 7.2c0 1.2-.4 2.1-1.3 2.7-.8.7-2 1-3.5 1-1.4 0-2.6-.3-3.6-.8v-2.5c.9.4 1.6.7 2.2.8s1.2.2 1.6.2c.6 0 1.1-.1 1.4-.3s.5-.6.5-1c0-.3-.1-.5-.2-.7-.1-.2-.3-.4-.6-.6-.3-.2-.8-.5-1.7-.9-.8-.4-1.4-.7-1.8-1.1s-.7-.7-.9-1.2-.4-1-.4-1.6c0-1.1.4-2 1.2-2.7.8-.7 1.8-1 3.2-1 .7 0 1.3.1 1.9.2.6.2 1.2.4 1.9.7L4.2 25c-.6 0-1.2-.2-1.7-.3-.4-.1-.9-.2-1.3-.2-.5 0-.9.1-1.2.4s-.4.6-.4.9c0 .2.1.5.2.6.1.2.3.4.5.5.2.2.8.5 1.7.9 1.2.6 2 1.2 2.5 1.7.5.6.7 1.3.7 2.2zm9.9 0c0 1.2-.4 2.1-1.3 2.7-.8.7-2 1-3.5 1-1.4 0-2.6-.3-3.6-.8v-2.5c.9.4 1.6.7 2.2.8s1.2.2 1.6.2c.6 0 1.1-.1 1.4-.3.3-.2.5-.6.5-1 0-.3-.1-.5-.2-.7-.1-.2-.3-.4-.6-.6-.3-.2-.8-.5-1.7-.9-.8-.4-1.4-.7-1.8-1.1s-.7-.7-.9-1.2-.4-1-.4-1.6c0-1.1.4-2 1.2-2.7s1.8-1 3.2-1c.7 0 1.3.1 1.9.2.6.2 1.2.4 1.9.7l-.9 2.1c-.7-.3-1.3-.5-1.7-.6-.4-.1-.9-.2-1.3-.2-.5 0-.9.1-1.2.4s-.4.6-.4.9c0 .2.1.5.2.6.1.2.3.4.5.5.2.2.8.5 1.7.9 1.2.6 2 1.2 2.5 1.7.5.9.7 1.6.7 2.5z" fill="#FCFCFC"/><path d="M-8.4 23.5c-1 0-1.8.4-2.4 1.2-.6.8-.8 1.8-.8 3.2 0 2.9 1.1 4.3 3.2 4.3.9 0 2-.2 3.3-.7v2.3c-1.1.4-2.2.7-3.5.7-1.9 0-3.3-.6-4.3-1.7s-1.5-2.8-1.5-4.9c0-1.3.2-2.5.7-3.5s1.2-1.8 2.1-2.3c.9-.5 2-.8 3.2-.8 1.2 0 2.5.3 3.8.9l-.9 2.2-1.5-.6c-.5-.2-.9-.3-1.4-.3zm13.6 7.2c0 1.2-.4 2.1-1.3 2.7-.8.7-2 1-3.5 1-1.4 0-2.6-.3-3.6-.8v-2.5c.9.4 1.6.7 2.2.8s1.2.2 1.6.2c.6 0 1.1-.1 1.4-.3s.5-.6.5-1c0-.3-.1-.5-.2-.7-.1-.2-.3-.4-.6-.6-.3-.2-.8-.5-1.7-.9-.8-.4-1.4-.7-1.8-1.1s-.7-.7-.9-1.2-.4-1-.4-1.6c0-1.1.4-2 1.2-2.7.8-.7 1.8-1 3.2-1 .7 0 1.3.1 1.9.2.6.2 1.2.4 1.9.7L4.2 24c-.6 0-1.2-.2-1.7-.3-.4-.1-.9-.2-1.3-.2-.5 0-.9.1-1.2.4s-.4.6-.4.9c0 .2.1.5.2.6.1.2.3.4.5.5.2.2.8.5 1.7.9 1.2.6 2 1.2 2.5 1.7.5.6.7 1.3.7 2.2zm9.9 0c0 1.2-.4 2.1-1.3 2.7-.8.7-2 1-3.5 1-1.4 0-2.6-.3-3.6-.8v-2.5c.9.4 1.6.7 2.2.8s1.2.2 1.6.2c.6 0 1.1-.1 1.4-.3.3-.2.5-.6.5-1 0-.3-.1-.5-.2-.7-.1-.2-.3-.4-.6-.6-.3-.2-.8-.5-1.7-.9-.8-.4-1.4-.7-1.8-1.1s-.7-.7-.9-1.2-.4-1-.4-1.6c0-1.1.4-2 1.2-2.7s1.8-1 3.2-1c.7 0 1.3.1 1.9.2.6.2 1.2.4 1.9.7l-.9 2.1c-.7-.3-1.3-.5-1.7-.6-.4-.1-.9-.2-1.3-.2-.5 0-.9.1-1.2.4s-.4.6-.4.9c0 .2.1.5.2.6.1.2.3.4.5.5.2.2.8.5 1.7.9 1.2.6 2 1.2 2.5 1.7.5.9.7 1.6.7 2.5z" fill="#0070BB"/></svg>