<svg xmlns="http://www.w3.org/2000/svg" viewBox="-12 18 48 48"><path fill="#E9EFF0" d="M-8.9 30.6c0 24.9 20.6 33.1 21 33.3.4-.1 21-8.4 21-33.3L12 20.2-8.9 30.6z"/><path fill="#D9DFE0" d="M12 20.2v43.6c.3-.1 21-8.4 21-33.3L12 20.2"/><path fill="#F2BA3A" d="M12 20.2L-9 30.5c0 24.9 20.6 33.1 21 33.3.3-.1 21-8.4 21-33.3L12 20.2m0 40.7c-.3-.2-18.1-7.3-18.1-28.8L12 23.2l18.1 8.9c.1 21.5-17.8 28.6-18.1 28.8"/><path fill="#E1A622" d="M12 22.2l-19.1 9.4c0 22.7 18.8 30.2 19.1 30.3.3-.1 19.1-7.6 19.1-30.3L12 22.2m0 38.7c-.3-.1-18.1-7.3-18.1-28.8L12 23.2l18.1 8.9c.1 21.5-17.8 28.7-18.1 28.8"/><path fill="#D39F28" d="M12 23.2l18.1 8.9c.1 21.5-17.8 28.6-18.1 28.8v3c.4-.1 21-8.3 21-33.3l-16-7.9-5-2.5v3z"/><path fill="#B8881B" d="M31.1 31.6L12 22.2v1l18.1 8.9c.1 21.5-17.8 28.7-18.1 28.8v1c.4-.1 19.1-7.6 19.1-30.3"/><path fill="#FFDA83" d="M-6.1 32.1l-1-.5L12 22.2v1l-18.1 8.9"/><path fill="#FFD983" d="M31.1 31.6l-1 .5c.1 21.5-17.8 28.7-18.1 28.8v1c.4-.1 19.1-7.6 19.1-30.3"/><path fill="#9BA3A8" d="M10 32.1v14.7c0 2.6-1.3 3.9-3.9 3.9-2.6 0-3.9-1.3-3.9-3.9v-.7h2.6v.7c0 .9.4 1.3 1.3 1.3s1.3-.4 1.3-1.3V32.1H10m6.3 13.7v.7c0 .9.4 1.3 1.3 1.3s1.3-.4 1.3-1.3v-1c0-1.2-.9-2.4-2.6-3.7-1.7-1.3-2.6-2.8-2.6-4.8v-1c0-2.6 1.3-3.9 3.9-3.9s4 1.3 4 3.9v.7H19V36c0-.9-.4-1.3-1.3-1.3s-1.3.4-1.3 1.3v1c0 1.2.9 2.4 2.6 3.7 1.7 1.2 2.6 2.8 2.6 4.7v1c0 2.6-1.3 3.9-3.9 3.9s-3.9-1.3-3.9-3.9v-.7h2.5z"/><path fill="#F0BC44" d="M10 31.7v14.7c0 2.6-1.3 3.9-3.9 3.9-2.6 0-3.9-1.3-3.9-3.9v-.7h2.6v.7c0 .9.4 1.3 1.3 1.3s1.3-.4 1.3-1.3V31.7H10"/><path fill="#E1B248" d="M13.7 45.4h2.6v.7c0 .9.4 1.3 1.3 1.3S19 47 19 46.1v-1c0-1.2-.9-2.4-2.6-3.7-1.7-1.2-2.6-2.8-2.6-4.7v-1c-.1-2.7 1.2-4 3.8-4s4 1.3 4 3.9v.7H19v-.7c0-.9-.4-1.3-1.3-1.3s-1.3.4-1.3 1.3v1c0 1.2.9 2.4 2.6 3.7 1.7 1.2 2.6 2.8 2.6 4.7v1c0 2.6-1.3 3.9-3.9 3.9s-3.9-1.3-3.9-3.9v-.6"/></svg>