<svg xmlns="http://www.w3.org/2000/svg" viewBox="-24 0 48 48"><title>PHP_shield</title><path fill="#E9EFF0" d="M-18.9 13.5C-18.9 37.2 0 44.9.4 45.1c.4-.1 19.3-8 19.3-31.6L.2 3.6l-19.1 9.9z"/><path fill="none" d="M-20.1 13.3c0 24.3 20 32.2 20.4 32.4.4-.1 20.4-8.2 20.4-32.4L.3 3.1l-20.4 10.2z"/><path opacity=".349" fill="#B3B3B3" d="M.3 3.1v42.5c.3-.1 20.4-8.2 20.4-32.4L.3 3.1"/><path fill="#848484" d="M.3 3.1l-20.4 10c0 24.3 20 32.2 20.4 32.4.3-.1 20.4-8.2 20.4-32.4L.3 3.1m0 39.6c-.3-.1-17.6-7-17.6-27.9L.3 6.1l17.6 8.6c.1 21-17.3 28-17.6 28"/><path fill="#5A5A5A" d="M.3 5.1l-18.6 9.1C-18.3 36.3 0 43.6.3 43.7c.3-.1 18.6-7.4 18.6-29.5L.3 5.1m0 37.7c-.3-.1-17.6-7-17.6-28L.3 6.1l17.6 8.6C18 35.7.6 42.7.3 42.8"/><path fill="#707070" d="M.3 6.1l17.6 8.6C17.9 35.7.6 42.6.3 42.6v2.9c.4-.1 20.4-8.1 20.4-32.4L5.2 5.6.3 3.2v2.9z"/><path fill="#5B5B5B" d="M18.8 14.2L.3 5.1v1l17.6 8.6c0 21-17.3 27.9-17.6 28v1c.4-.1 18.5-7.3 18.5-29.5"/><path fill="#B0B0B0" d="M-17.3 14.7l-1-.5L.3 5.1v1l-17.6 8.6m36.1-.5l-1 .5c.1 21-17.2 27.9-17.5 28v1c.4-.1 18.5-7.3 18.5-29.5"/><path fill="#737373" stroke="#FFF" stroke-width=".5" d="M-8.9 23.1l-.7 3.3h-2.3l2-9.7h3.7c1.1 0 1.9.3 2.4.9.6.6.7 1.4.5 2.4-.2 1-.7 1.8-1.4 2.3-.7.6-1.7.8-2.8.8h-1.4zm.3-1.8h1.5c.4 0 .8-.1 1.1-.4.3-.3.5-.6.6-1.1.1-.5.1-.8-.1-1.1-.2-.3-.5-.4-.9-.4h-1.5l-.7 3zm12.9 5H2l.8-3.9H-.3l-.8 3.9h-2.3l2-9.7H.9l-.8 4.1h3.1l.8-4.1h2.3l-2 9.7zm4.2-3.2l-.7 3.3H5.7l2-9.7h3.7c1.1 0 1.9.3 2.4.9.6.6.7 1.4.5 2.4-.2 1.1-.7 1.9-1.4 2.4-.7.6-1.7.8-2.8.8l-1.6-.1zm.4-1.8h1.5c.4 0 .8-.1 1.1-.4.3-.3.5-.6.6-1.1.1-.5.1-.8-.1-1.1-.2-.3-.5-.4-.9-.4H9.6l-.7 3z"/></svg>