<?xml version="1.0" encoding="UTF-8"?>
<!-- Generator: Adobe Illustrator 18.0.0, SVG Export Plug-In . SVG Version: 6.00 Build 0)  -->
<!DOCTYPE svg PUBLIC "-//W3C//DTD SVG 1.1//EN" "http://www.w3.org/Graphics/SVG/1.1/DTD/svg11.dtd">
<svg version="1.1" id="Layer_1" xmlns="http://www.w3.org/2000/svg" xmlns:xlink="http://www.w3.org/1999/xlink" x="0px" y="0px" viewBox="-24 6 48 48" enable-background="new -24 6 48 48" xml:space="preserve">
<title>PHP_shield</title>
<path fill="#E9EFF0" d="M-18.9,19.9c0,23.7,18.9,31.4,19.3,31.6c0.4-0.1,19.3-8,19.3-31.6L0.2,10L-18.9,19.9z"/>
<path fill="none" d="M-20.1,19.6c0,24.3,20,32.2,20.4,32.4c0.4-0.1,20.4-8.2,20.4-32.4L0.3,9.5L-20.1,19.6z"/>
<path opacity="0.349" fill="#B3B3B3" enable-background="new    " d="M0.3,9.5L0.3,9.5L0.3,9.5L0.3,9.5V52l0,0l0,0l0,0l0,0l0,0  c0.3-0.1,20.4-8.2,20.4-32.4L0.3,9.5L0.3,9.5"/>
<path fill="#E44D26" d="M0.3,9.5L0.3,9.5L0.3,9.5L0.3,9.5l-20.4,10c0,24.3,20,32.2,20.4,32.4l0,0l0,0l0,0l0,0  c0.3-0.1,20.4-8.2,20.4-32.4L0.3,9.5 M0.3,49L0.3,49L0.3,49L0.3,49C0,48.9-17.3,42-17.3,21.1l17.6-8.6l0,0l0,0l0,0l0,0l17.6,8.6  C18,42.1,0.6,49,0.3,49"/>
<path fill="#7F2819" d="M0.3,11.5L0.3,11.5L0.3,11.5L0.3,11.5l-18.6,9.1C-18.3,42.7,0,50,0.3,50.1l0,0l0,0l0,0l0,0  c0.3-0.1,18.6-7.4,18.6-29.5L0.3,11.5 M0.3,49.1L0.3,49.1L0.3,49.1L0.3,49.1c-0.3-0.1-17.6-7-17.6-28l17.6-8.6l0,0l0,0l0,0l0,0  l17.6,8.6C18,42.1,0.6,49,0.3,49.1"/>
<path fill="#9E331E" d="M0.3,12.5l17.6,8.6C17.9,42.1,0.6,49,0.3,49v2.9c0.4-0.1,20.4-8.1,20.4-32.4L5.2,12L0.3,9.6V12.5z"/>
<path fill="#7F2819" d="M18.8,20.6L0.3,11.5l0,0l0,0l0,0l0,0v1l0,0l0,0l0,0l0,0l0,0l17.6,8.6c0,21-17.3,27.9-17.6,28l0,0l0,0l0,0  l0,0v1l0,0l0,0l0,0l0,0l0,0C0.7,49.9,18.8,42.8,18.8,20.6"/>
<path fill="#E0745F" d="M-17.3,21.1l-1-0.5l18.6-9.1v1L-17.3,21.1"/>
<path fill="#E0745F" d="M18.8,20.6l-1,0.5c0.1,21-17.2,27.9-17.5,28l0,0l0,0l0,0l0,0v1l0,0l0,0l0,0l0,0l0,0  C0.7,49.9,18.8,42.8,18.8,20.6"/>
<g>
	<path fill="#FCFCFC" d="M-6.2,33.1h-2.1v-4.2h-3.9v4.2h-2.1v-9.8h2.1v3.9h3.9v-3.9h2.1V33.1z"/>
	<path fill="#FCFCFC" d="M0.1,33.1H-2V25h-2.7v-1.7h7.4V25H0.1V33.1z"/>
	<path fill="#FCFCFC" d="M8.5,33.1l-2.4-7.7H6c0.1,1.6,0.1,2.6,0.1,3.1v4.6H4.3v-9.8h2.8l2.3,7.5h0l2.5-7.5h2.8v9.8h-1.9v-4.7   c0-0.2,0-0.5,0-0.8c0-0.3,0-1.1,0.1-2.3h-0.1l-2.5,7.7H8.5z"/>
</g>
<g>
	<path fill="#E44D26" d="M-6.2,32.1h-2.1v-4.2h-3.9v4.2h-2.1v-9.8h2.1v3.9h3.9v-3.9h2.1V32.1z"/>
	<path fill="#E44D26" d="M0.1,32.1H-2V24h-2.7v-1.7h7.4V24H0.1V32.1z"/>
	<path fill="#E44D26" d="M8.5,32.1l-2.4-7.7H6c0.1,1.6,0.1,2.6,0.1,3.1v4.6H4.3v-9.8h2.8l2.3,7.5h0l2.5-7.5h2.8v9.8h-1.9v-4.7   c0-0.2,0-0.5,0-0.8c0-0.3,0-1.1,0.1-2.3h-0.1l-2.5,7.7H8.5z"/>
</g>
</svg>