<svg xmlns="http://www.w3.org/2000/svg" viewBox="-24 6 48 48"><title>PHP_shield</title><path fill="#E9EFF0" d="M-18.9 19.9C-18.9 43.6 0 51.3.4 51.5c.4-.1 19.3-8 19.3-31.6L.2 10l-19.1 9.9z"/><path fill="none" d="M-20.1 19.6C-20.1 43.9-.1 51.8.3 52c.4-.1 20.4-8.2 20.4-32.4L.3 9.5l-20.4 10.1z"/><path opacity=".349" fill="#B3B3B3" d="M.3 9.5V52c.3-.1 20.4-8.2 20.4-32.4L.3 9.5"/><path fill="#E44D26" d="M.3 9.5l-20.4 10c0 24.3 20 32.2 20.4 32.4.3-.1 20.4-8.2 20.4-32.4L.3 9.5M.3 49c-.3-.1-17.6-7-17.6-27.9L.3 12.5l17.6 8.6C18 42.1.6 49 .3 49"/><path fill="#7F2819" d="M.3 11.5l-18.6 9.1C-18.3 42.7 0 50 .3 50.1c.3-.1 18.6-7.4 18.6-29.5L.3 11.5m0 37.6c-.3-.1-17.6-7-17.6-28L.3 12.5l17.6 8.6C18 42.1.6 49 .3 49.1"/><path fill="#9E331E" d="M.3 12.5l17.6 8.6C17.9 42.1.6 49 .3 49v2.9c.4-.1 20.4-8.1 20.4-32.4L5.2 12 .3 9.6v2.9z"/><path fill="#7F2819" d="M18.8 20.6L.3 11.5v1l17.6 8.6c0 21-17.3 27.9-17.6 28v1c.4-.2 18.5-7.3 18.5-29.5"/><path fill="#E0745F" d="M-17.3 21.1l-1-.5L.3 11.5v1l-17.6 8.6m36.1-.5l-1 .5C17.9 42.1.6 49 .3 49.1v1c.4-.2 18.5-7.3 18.5-29.5"/><path d="M-6.2 33.1h-2.1v-4.2h-3.9v4.2h-2.1v-9.8h2.1v3.9h3.9v-3.9h2.1v9.8zm6.3 0H-2V25h-2.7v-1.7h7.4V25H.1v8.1zm8.4 0l-2.4-7.7H6c.1 1.6.1 2.6.1 3.1v4.6H4.3v-9.8h2.8l2.3 7.5 2.5-7.5h2.8v9.8h-1.9v-5.5c0-.3 0-1.1.1-2.3h-.1L10.3 33H8.5z" fill="#FCFCFC"/><path d="M-6.2 32.1h-2.1v-4.2h-3.9v4.2h-2.1v-9.8h2.1v3.9h3.9v-3.9h2.1v9.8zm6.3 0H-2V24h-2.7v-1.7h7.4V24H.1v8.1zm8.4 0l-2.4-7.7H6c.1 1.6.1 2.6.1 3.1v4.6H4.3v-9.8h2.8l2.3 7.5 2.5-7.5h2.8v9.8h-1.9v-5.5c0-.3 0-1.1.1-2.3h-.1L10.3 32H8.5z" fill="#E44D26"/></svg>