<svg xmlns="http://www.w3.org/2000/svg" width="417" height="740" viewBox="0 0 4170 7400" shape-rendering="geometricPrecision" text-rendering="geometricPrecision" image-rendering="optimizeQuality" fill-rule="evenodd" clip-rule="evenodd"><defs><style>.str0,.str1{stroke:#000;stroke-width:9.99213}.str1{stroke-width:23.622}.fil0{fill:none}.fil1,.fil2{fill:#000}.fil1{fill-rule:nonzero}</style></defs><g id="layer"><g id="first-block"><ellipse class="fil0 str0" transform="matrix(1.50102 -.04797 .04999 1.56424 873.932 895.532)" rx="446" ry="440"/><path class="fil1" d="M610 974h-23V825h-37v-18l60-6z"/><path id="1" class="fil1" d="M774 920h-11v54h-24V847h24v54h9l46-54h27v1l-53 60 57 66h-29z"/><path id="2" class="fil1" d="M908 927l4 16h1l31-96h26l-53 147c-3 8-8 16-14 22s-14 9-24 9h-7c-3-1-6-1-7-2l2-18s1 0 4 1h7c4 0 9-2 12-7 3-4 5-9 7-14l6-13-47-125h26l26 80z"/><path id="3" class="fil1" d="M1098 916c0 18-4 33-13 44s-21 17-36 17c-8 0-15-2-21-4-5-3-10-7-15-12v62h-23V847h18l4 17c4-6 9-11 15-14s13-5 22-5c15 0 28 6 36 19 9 12 13 29 13 49v3zm-23-3c0-14-3-26-8-35-6-10-14-14-25-14-7 0-13 1-17 4-5 3-9 7-12 13v61c3 5 7 9 12 12 4 3 10 5 17 5 11 0 19-4 25-12s8-19 8-31v-3z"/><path id="4" class="fil1" d="M1177 959c7 0 13-3 19-8 5-4 8-10 8-17h21v1c0 11-4 20-14 29-10 8-21 13-34 13-18 0-31-6-41-19-10-12-15-27-15-45v-5c0-18 5-33 15-45s23-18 41-18c14 0 26 4 35 13s13 20 13 32v1h-21c0-8-3-14-8-20-5-5-11-8-19-8-11 0-19 5-25 13-5 9-7 20-7 32v5c0 13 2 24 7 32 5 9 14 14 25 14z"/><circle class="fil2" cx="2095" cy="780" r="100"/></g><g id="second-block"><ellipse class="fil0 str0" transform="matrix(1.50102 -.04797 .04999 1.56424 3323.93 2695.53)" rx="446" ry="440"/><path class="fil1" d="M3100 2774h-106v-15l54-64c9-12 16-21 19-28 4-7 5-14 5-21s-2-14-7-19c-4-5-11-8-19-8-10 0-17 4-23 10-5 6-8 14-8 23h-22v-1c0-14 4-26 14-35 10-10 23-15 39-15s28 4 36 13c9 8 13 19 13 33 0 9-2 17-7 26s-12 19-23 32l-43 51h78v18z"/><path id="1" class="fil1" d="M3224 2721h-11v53h-24v-126h24v53h9l46-53h27l-53 60 57 66h-29z"/><path id="2" class="fil1" d="M3358 2727l4 16h1l31-95h26l-53 146c-4 8-8 16-14 22s-14 10-24 10c-2 0-5-1-7-1-3 0-6-1-7-1l2-18c0-1 1 0 4 0h7c4 0 8-2 12-6 3-5 5-10 7-15l6-13-47-124h26l26 79z"/><path id="3" class="fil1" d="M3548 2716c0 18-4 33-13 44s-21 17-36 17c-8 0-15-1-21-4-5-3-10-7-15-12v62h-23v-175h18l4 16c4-6 9-11 15-14s13-5 22-5c15 0 28 6 36 19 9 12 13 29 13 49v3zm-23-3c0-14-3-26-8-35-6-9-14-14-25-14-7 0-13 1-17 4-5 3-9 8-12 13v61c3 5 7 9 12 12 4 3 10 5 17 5 11 0 19-4 25-12 5-8 8-19 8-31v-3z"/><path id="4" class="fil1" d="M3627 2759c7 0 13-3 19-7 5-5 8-11 8-18h21v1c0 11-4 21-14 29-10 9-21 13-34 13-18 0-31-6-41-18s-15-27-15-46v-5c0-17 5-32 15-45 10-12 23-18 41-18 14 0 26 5 35 13 9 9 13 20 13 33h-21c0-7-3-14-8-19-5-6-11-9-19-9-11 0-19 5-25 14-5 8-7 19-7 31v5c0 13 2 24 7 33 5 8 14 13 25 13z"/><circle class="fil2" cx="2095" cy="2680" r="100"/><path class="fil0 str1" d="M2095 990v1300"/></g><g id="third-block"><ellipse class="fil0 str0" transform="matrix(1.50102 -.04797 .04999 1.56424 873.932 4595)" rx="446" ry="440"/><path class="fil1" d="M537 4628l21-3c2 12 6 21 12 26 6 6 13 8 22 8 10 0 18-3 25-10s10-16 10-26c0-9-3-17-9-24-7-6-15-9-25-9-4 0-9 1-15 2l3-18h3c9 0 17-2 25-7 7-5 10-12 10-22 0-7-2-14-7-19-6-5-12-7-21-7-8 0-15 2-20 7-6 6-9 13-11 24l-21-4c3-14 8-25 18-33 9-8 20-12 34-12 9 0 18 2 26 6s14 10 18 17 6 14 6 22c0 7-2 14-6 20s-10 11-18 15c10 2 18 7 24 14 6 8 8 17 8 28 0 15-5 28-16 38-11 11-25 16-42 16-15 0-27-5-37-14s-16-20-17-35z"/><path id="1" class="fil1" d="M743 4549h21v54c6 0 11-1 14-4 3-2 7-10 12-22 4-10 7-17 10-20 2-3 5-5 9-6 3-1 9-2 16-2h4v18h-6c-5 0-9 0-10 2-2 2-4 7-8 15-3 9-6 14-9 17-2 3-6 6-12 9 9 2 18 11 27 25l23 39h-23l-23-39c-5-7-9-13-12-15-3-3-8-4-12-4v58h-21v-125z"/><path id="2" class="fil1" d="M850 4722l-3-20c5 1 9 2 12 2 5 0 9-1 12-2 2-2 5-4 7-7 1-2 3-7 6-16 0-1 1-2 2-5l-47-125h22l26 72c4 9 7 19 9 29 3-10 5-19 9-28l26-73h22l-48 127c-5 14-9 23-11 28-4 7-9 12-13 15-5 4-11 5-18 5-4 0-8-1-13-2z"/><path id="3" class="fil1" d="M968 4722v-173h19v17c5-7 10-11 15-15 6-3 13-4 21-4 11 0 20 2 28 8 8 5 15 13 19 23s6 21 6 33-2 24-7 34-11 18-20 23c-9 6-18 9-27 9-7 0-14-2-19-5-6-3-10-7-14-11v61h-21zm19-110c0 16 3 28 10 36 6 7 14 11 23 11 10 0 18-4 24-12 7-8 10-20 10-36s-3-28-9-36c-7-8-15-12-24-12s-17 4-24 13c-7 8-10 20-10 36z"/><path id="4" class="fil1" d="M1183 4628l20 3c-2 14-8 25-17 33s-21 13-34 13c-17 0-31-6-41-17-11-11-16-27-16-48 0-13 2-25 7-35 4-10 11-18 20-23s19-7 30-7c13 0 24 3 33 10s14 16 17 29l-21 3c-2-8-5-15-10-19s-11-6-18-6c-11 0-20 4-26 11-7 8-10 20-10 36 0 17 3 29 9 37 7 7 15 11 25 11 9 0 16-2 21-7 6-5 9-13 11-24z"/><path class="fil0 str1" d="M2095 2990v1290"/><circle class="fil2" cx="2095" cy="4580" r="100"/></g><g id="fourth-block"><path class="fil1" d="M3030 6516h23v19h-23v39h-23v-39h-73v-13l72-119h24v113zm-72 0h49v-80h-1l-2 6-46 74z"/><path id="1" class="fil1" d="M3173 6520h-12v54h-23v-127h23v54h10l45-54h27l1 1-53 60 57 65-1 1h-28z"/><path id="2" class="fil1" d="M3307 6527l4 16h1l31-96h26l-54 146c-3 9-8 16-14 23-6 6-14 9-24 9h-7c-3-1-5-1-7-2l3-18h4c3 1 5 1 6 1 5 0 9-2 12-7 3-4 6-9 8-14l5-14-47-124h26l27 80z"/><path id="3" class="fil1" d="M3497 6515c0 19-4 33-13 45-9 11-21 16-36 16-8 0-15-1-21-4-6-2-11-6-15-11v62h-23v-176h18l3 17c4-7 9-11 16-14 6-4 13-5 21-5 16 0 28 6 37 19 9 12 13 28 13 49v2zm-23-2c0-15-3-26-9-36-5-9-14-13-25-13-6 0-12 1-17 4-4 3-8 7-11 12v62c3 5 7 9 11 12 5 3 11 4 17 4 11 0 20-4 25-12 6-8 9-18 9-31v-2z"/><path id="4" class="fil1" d="M3576 6558c7 0 13-2 18-7 6-4 8-10 8-17h21v1c1 11-4 20-14 29-9 8-21 12-33 12-18 0-32-6-42-18-9-12-14-27-14-45v-5c0-18 5-33 14-45 10-12 24-18 42-18 14 0 25 4 34 13s14 19 13 32v1h-21c0-8-2-14-7-20-5-5-12-8-19-8-12 0-20 4-25 13s-8 20-8 32v5c0 13 3 23 8 32s13 13 25 13z"/><path class="fil0 str1" d="M2095 4850v1370"/><circle class="fil2" cx="2095" cy="6480" r="100"/><ellipse class="fil0 str0" transform="matrix(1.50102 -.04797 .04999 1.56424 3272.42 6495)" rx="446" ry="440"/></g></g></svg>